# MagicaVoxel @ Ephtracy

# group
o 

# material
mtllib Gatetower-2.mtl
usemtl palette

# normals
vn 1 0 0
vn -1 0 0
vn 0 1 0
vn 0 -1 0
vn 0 0 -1
vn 0 0 1

# texcoords
vt 0.0527344 0.5
vt 0.107422 0.5
vt 0.189453 0.5
vt 0.244141 0.5
vt 0.275391 0.5
vt 0.306641 0.5
vt 0.958984 0.5

# verts
v 0.9 0.3 -1.1
v 0.9 0.2 -1.1
v 0.9 0.1 -1.1
v 0.9 0.3 -1
v 0.9 0.2 -1
v 0.9 0.1 -1
v 0.8 0.3 -1
v 0.8 0.2 -1
v 0.8 0.1 -1
v 0.8 0.3 -0.9
v 0.8 0.2 -0.9
v 0.8 0.1 -0.9
v 0.7 0.3 -0.9
v 0.7 0.2 -0.9
v 0.7 0.1 -0.9
v 0.7 0.3 -0.8
v 0.7 0.2 -0.8
v 0.7 0.1 -0.8
v 0.6 0.3 -0.2
v 0.6 0.1 -0.2
v 0.6 0.3 -0.0999999
v 0.6 0.1 -0.0999999
v 0.5 0.3 -0.0999999
v 0.5 0.1 -0.0999999
v 0.5 0.3 1.19209e-007
v 0.5 0.1 1.19209e-007
v 0.4 0.3 1.19209e-007
v 0.4 0.1 1.19209e-007
v 0.4 0.3 0.1
v 0.4 0.1 0.1
v 0.3 0.5 -1.2
v 0.3 0.4 -1.2
v 0.3 0.3 -1.2
v 0.3 0.1 -1.2
v 0.3 0.5 -1.1
v 0.3 0.4 -1.1
v 0.3 0.3 -1.1
v 0.3 0.2 -1.1
v 0.3 0.1 -1.1
v 0.3 0.4 -0.9
v 0.3 0.3 -0.9
v 0.3 0.4 -0.8
v 0.3 0.3 -0.8
v 0.3 0.2 -0.8
v 0.3 0.1 -0.8
v 0.3 0.3 -0.7
v 0.3 0.2 -0.7
v 0.3 0.1 -0.7
v 0.3 0.4 -0.6
v 0.3 0.3 -0.6
v 0.3 0.2 -0.6
v 0.3 0.1 -0.6
v 0.3 0.3 -0.5
v 0.3 0.2 -0.5
v 0.3 0.1 -0.5
v 0.3 0.4 -0.4
v 0.3 0.3 -0.4
v 0.3 0.2 -0.4
v 0.3 0.1 -0.4
v 0.3 0.4 -0.3
v 0.3 0.3 -0.3
v 0.3 0.2 -0.3
v 0.3 0.3 -0.2
v 0.3 0.2 -0.2
v 0.3 0.1 -0.2
v 0.3 0.4 -0.0999999
v 0.3 0.3 -0.0999999
v 0.3 0.3 0.1
v 0.3 0.1 0.1
v 0.3 0.2 0.2
v 0.3 0.1 0.2
v 0.3 0.4 0.4
v 0.3 0.3 0.4
v 0.3 0.2 0.4
v 0.3 0.4 0.5
v 0.3 0.3 0.5
v 0.3 0.1 0.5
v 0.1 0.5 -1.2
v 0.1 0.4 -1.2
v 0.1 0.3 -1.2
v 0.1 0.1 -1.2
v 0.1 0.5 -1.1
v 0.1 0.4 -1.1
v 0.1 0.3 -1.1
v 0.1 0.2 -1.1
v 0.1 0.1 -1.1
v 0.1 0.4 -0.9
v 0.1 0.3 -0.9
v 0.1 0.4 -0.8
v 0.1 0.3 -0.8
v 0.1 0.2 -0.8
v 0.1 0.1 -0.8
v 0.1 0.3 -0.7
v 0.1 0.2 -0.7
v 0.1 0.1 -0.7
v 0.1 0.4 -0.6
v 0.1 0.3 -0.6
v 0.1 0.2 -0.6
v 0.1 0.1 -0.6
v 0.1 0.3 -0.5
v 0.1 0.2 -0.5
v 0.1 0.1 -0.5
v 0.1 0.4 -0.4
v 0.1 0.3 -0.4
v 0.1 0.2 -0.4
v 0.1 0.1 -0.4
v 0.1 0.4 -0.3
v 0.1 0.3 -0.3
v 0.1 0.2 -0.3
v 0.1 0.3 -0.2
v 0.1 0.2 -0.2
v 0.1 0.1 -0.2
v 0.1 0.4 -0.0999999
v 0.1 0.3 -0.0999999
v 0.1 0.3 0.1
v 0.1 0.1 0.1
v 0.1 0.2 0.2
v 0.1 0.1 0.2
v 0.1 0.4 0.4
v 0.1 0.3 0.4
v 0.1 0.2 0.4
v 0.1 0.4 0.5
v 0.1 0.3 0.5
v 0.1 0.1 0.5
v 2.38419e-007 0.3 1.19209e-007
v 2.38419e-007 0.1 1.19209e-007
v 2.38419e-007 0.3 0.1
v 2.38419e-007 0.1 0.1
v -0.0999998 0.3 -0.0999999
v -0.0999998 0.1 -0.0999999
v -0.0999998 0.3 1.19209e-007
v -0.0999998 0.1 1.19209e-007
v -0.2 0.3 -0.2
v -0.2 0.1 -0.2
v -0.2 0.3 -0.0999999
v -0.2 0.1 -0.0999999
v -0.3 0.3 -0.9
v -0.3 0.2 -0.9
v -0.3 0.1 -0.9
v -0.3 0.3 -0.8
v -0.3 0.2 -0.8
v -0.3 0.1 -0.8
v -0.4 0.3 -1
v -0.4 0.2 -1
v -0.4 0.1 -1
v -0.4 0.3 -0.9
v -0.4 0.2 -0.9
v -0.4 0.1 -0.9
v -0.5 0.3 -1.1
v -0.5 0.2 -1.1
v -0.5 0.1 -1.1
v -0.5 0.3 -1
v -0.5 0.2 -1
v -0.5 0.1 -1
v 0.3 0.5 -1.2
v 0.3 0.5 -1.1
v 0.1 0.5 -1.2
v 0.1 0.5 -1.1
v 0.3 0.4 -1.1
v 0.3 0.4 -0.9
v 0.3 0.4 -0.8
v 0.3 0.4 -0.6
v 0.3 0.4 -0.4
v 0.3 0.4 -0.3
v 0.3 0.4 -0.0999999
v 0.3 0.4 0.4
v 0.3 0.4 0.5
v 0.1 0.4 -1.1
v 0.1 0.4 -0.9
v 0.1 0.4 -0.8
v 0.1 0.4 -0.6
v 0.1 0.4 -0.4
v 0.1 0.4 -0.3
v 0.1 0.4 -0.0999999
v 0.1 0.4 0.4
v 0.1 0.4 0.5
v 0.9 0.3 -1.1
v 0.9 0.3 -1
v 0.8 0.3 -1.1
v 0.8 0.3 -1
v 0.8 0.3 -0.9
v 0.7 0.3 -1.1
v 0.7 0.3 -0.9
v 0.7 0.3 -0.8
v 0.6 0.3 -1.1
v 0.6 0.3 -0.8
v 0.6 0.3 -0.2
v 0.6 0.3 -0.0999999
v 0.5 0.3 -1.1
v 0.5 0.3 -0.8
v 0.5 0.3 -0.0999999
v 0.5 0.3 1.19209e-007
v 0.4 0.3 -1.1
v 0.4 0.3 -0.8
v 0.4 0.3 1.19209e-007
v 0.4 0.3 0.1
v 0.3 0.3 -1.1
v 0.3 0.3 -0.9
v 0.3 0.3 -0.8
v 0.3 0.3 -0.2
v 0.3 0.3 -0.0999999
v 0.3 0.3 0.1
v 0.3 0.3 0.4
v 0.1 0.3 -1.1
v 0.1 0.3 -0.9
v 0.1 0.3 -0.8
v 0.1 0.3 -0.2
v 0.1 0.3 -0.0999999
v 0.1 0.3 0.1
v 0.1 0.3 0.4
v 2.38419e-007 0.3 -1.1
v 2.38419e-007 0.3 -0.8
v 2.38419e-007 0.3 1.19209e-007
v 2.38419e-007 0.3 0.1
v -0.0999998 0.3 -1.1
v -0.0999998 0.3 -0.8
v -0.0999998 0.3 -0.0999999
v -0.0999998 0.3 1.19209e-007
v -0.2 0.3 -1.1
v -0.2 0.3 -0.8
v -0.2 0.3 -0.2
v -0.2 0.3 -0.0999999
v -0.3 0.3 -1.1
v -0.3 0.3 -0.9
v -0.3 0.3 -0.8
v -0.4 0.3 -1.1
v -0.4 0.3 -1
v -0.4 0.3 -0.9
v -0.5 0.3 -1.1
v -0.5 0.3 -1
v 0.9 0.1 -1.1
v 0.9 0.1 -1
v 0.8 0.1 -1
v 0.8 0.1 -0.9
v 0.7 0.1 -0.9
v 0.7 0.1 -0.8
v 0.6 0.1 -0.2
v 0.6 0.1 -0.0999999
v 0.5 0.1 -0.0999999
v 0.5 0.1 1.19209e-007
v 0.4 0.1 1.19209e-007
v 0.4 0.1 0.1
v 0.3 0.1 -1.2
v 0.3 0.1 -1.1
v 0.3 0.1 -0.8
v 0.3 0.1 -0.7
v 0.3 0.1 -0.6
v 0.3 0.1 -0.5
v 0.3 0.1 -0.4
v 0.3 0.1 -0.2
v 0.3 0.1 0.1
v 0.3 0.1 0.2
v 0.3 0.1 0.5
v 0.1 0.1 -1.2
v 0.1 0.1 -1.1
v 0.1 0.1 -0.8
v 0.1 0.1 -0.7
v 0.1 0.1 -0.6
v 0.1 0.1 -0.5
v 0.1 0.1 -0.4
v 0.1 0.1 -0.2
v 0.1 0.1 0.1
v 0.1 0.1 0.2
v 0.1 0.1 0.5
v 2.38419e-007 0.1 1.19209e-007
v 2.38419e-007 0.1 0.1
v -0.0999998 0.1 -0.0999999
v -0.0999998 0.1 1.19209e-007
v -0.2 0.1 -0.2
v -0.2 0.1 -0.0999999
v -0.3 0.1 -0.9
v -0.3 0.1 -0.8
v -0.4 0.1 -1
v -0.4 0.1 -0.9
v -0.5 0.1 -1.1
v -0.5 0.1 -1
v 0.3 0.5 -1.2
v 0.1 0.5 -1.2
v 0.3 0.4 -1.2
v 0.1 0.4 -1.2
v 0.3 0.3 -1.2
v 0.1 0.3 -1.2
v 0.3 0.1 -1.2
v 0.1 0.1 -1.2
v 0.9 0.3 -1.1
v 0.8 0.3 -1.1
v 0.7 0.3 -1.1
v 0.6 0.3 -1.1
v 0.5 0.3 -1.1
v 0.4 0.3 -1.1
v 0.3 0.3 -1.1
v 0.1 0.3 -1.1
v 2.38419e-007 0.3 -1.1
v -0.0999998 0.3 -1.1
v -0.2 0.3 -1.1
v -0.3 0.3 -1.1
v -0.4 0.3 -1.1
v -0.5 0.3 -1.1
v 0.9 0.2 -1.1
v 0.8 0.2 -1.1
v 0.7 0.2 -1.1
v 0.6 0.2 -1.1
v 0.5 0.2 -1.1
v 0.4 0.2 -1.1
v 0.3 0.2 -1.1
v 0.1 0.2 -1.1
v 2.38419e-007 0.2 -1.1
v -0.0999998 0.2 -1.1
v -0.2 0.2 -1.1
v -0.3 0.2 -1.1
v -0.4 0.2 -1.1
v -0.5 0.2 -1.1
v 0.9 0.1 -1.1
v 0.3 0.1 -1.1
v 0.1 0.1 -1.1
v -0.5 0.1 -1.1
v 0.6 0.3 -0.2
v 0.3 0.3 -0.2
v 0.1 0.3 -0.2
v -0.2 0.3 -0.2
v 0.3 0.2 -0.2
v 0.1 0.2 -0.2
v 0.6 0.1 -0.2
v 0.3 0.1 -0.2
v 0.1 0.1 -0.2
v -0.2 0.1 -0.2
v 0.3 0.4 0.4
v 0.1 0.4 0.4
v 0.3 0.3 0.4
v 0.1 0.3 0.4
v 0.3 0.5 -1.1
v 0.1 0.5 -1.1
v 0.3 0.4 -1.1
v 0.1 0.4 -1.1
v 0.9 0.3 -1
v 0.8 0.3 -1
v -0.4 0.3 -1
v -0.5 0.3 -1
v 0.9 0.2 -1
v 0.8 0.2 -1
v -0.4 0.2 -1
v -0.5 0.2 -1
v 0.9 0.1 -1
v 0.8 0.1 -1
v -0.4 0.1 -1
v -0.5 0.1 -1
v 0.8 0.3 -0.9
v 0.7 0.3 -0.9
v -0.3 0.3 -0.9
v -0.4 0.3 -0.9
v 0.8 0.2 -0.9
v 0.7 0.2 -0.9
v -0.3 0.2 -0.9
v -0.4 0.2 -0.9
v 0.8 0.1 -0.9
v 0.7 0.1 -0.9
v -0.3 0.1 -0.9
v -0.4 0.1 -0.9
v 0.7 0.3 -0.8
v 0.6 0.3 -0.8
v 0.5 0.3 -0.8
v 0.4 0.3 -0.8
v 0.3 0.3 -0.8
v 0.1 0.3 -0.8
v 2.38419e-007 0.3 -0.8
v -0.0999998 0.3 -0.8
v -0.2 0.3 -0.8
v -0.3 0.3 -0.8
v 0.7 0.2 -0.8
v 0.6 0.2 -0.8
v 0.5 0.2 -0.8
v 0.4 0.2 -0.8
v 0.3 0.2 -0.8
v 0.1 0.2 -0.8
v 2.38419e-007 0.2 -0.8
v -0.0999998 0.2 -0.8
v -0.2 0.2 -0.8
v -0.3 0.2 -0.8
v 0.7 0.1 -0.8
v 0.3 0.1 -0.8
v 0.1 0.1 -0.8
v -0.3 0.1 -0.8
v 0.3 0.4 -0.0999999
v 0.1 0.4 -0.0999999
v 0.6 0.3 -0.0999999
v 0.5 0.3 -0.0999999
v 0.3 0.3 -0.0999999
v 0.1 0.3 -0.0999999
v -0.0999998 0.3 -0.0999999
v -0.2 0.3 -0.0999999
v 0.6 0.1 -0.0999999
v 0.5 0.1 -0.0999999
v -0.0999998 0.1 -0.0999999
v -0.2 0.1 -0.0999999
v 0.5 0.3 1.19209e-007
v 0.4 0.3 1.19209e-007
v 2.38419e-007 0.3 1.19209e-007
v -0.0999998 0.3 1.19209e-007
v 0.5 0.1 1.19209e-007
v 0.4 0.1 1.19209e-007
v 2.38419e-007 0.1 1.19209e-007
v -0.0999998 0.1 1.19209e-007
v 0.4 0.3 0.1
v 0.3 0.3 0.1
v 0.1 0.3 0.1
v 2.38419e-007 0.3 0.1
v 0.4 0.1 0.1
v 0.3 0.1 0.1
v 0.1 0.1 0.1
v 2.38419e-007 0.1 0.1
v 0.3 0.4 0.5
v 0.1 0.4 0.5
v 0.3 0.3 0.5
v 0.1 0.3 0.5
v 0.3 0.1 0.5
v 0.1 0.1 0.5

# faces
f 4/2/1 2/2/1 1/2/1
f 5/6/1 3/6/1 2/6/1
f 5/2/1 2/2/1 4/2/1
f 6/6/1 3/6/1 5/6/1
f 10/1/1 8/1/1 7/1/1
f 11/6/1 9/6/1 8/6/1
f 11/1/1 8/1/1 10/1/1
f 12/6/1 9/6/1 11/6/1
f 16/2/1 14/2/1 13/2/1
f 17/6/1 15/6/1 14/6/1
f 17/2/1 14/2/1 16/2/1
f 18/6/1 15/6/1 17/6/1
f 21/4/1 20/4/1 19/4/1
f 22/4/1 20/4/1 21/4/1
f 25/4/1 24/4/1 23/4/1
f 26/4/1 24/4/1 25/4/1
f 29/4/1 28/4/1 27/4/1
f 30/4/1 28/4/1 29/4/1
f 35/1/1 32/1/1 31/1/1
f 36/6/1 33/6/1 32/6/1
f 36/1/1 32/1/1 35/1/1
f 37/4/1 34/4/1 33/4/1
f 37/6/1 33/6/1 36/6/1
f 38/4/1 34/4/1 37/4/1
f 39/4/1 34/4/1 38/4/1
f 40/6/1 37/6/1 36/6/1
f 41/6/1 37/6/1 40/6/1
f 42/1/1 41/1/1 40/1/1
f 43/1/1 41/1/1 42/1/1
f 46/4/1 43/4/1 42/4/1
f 46/1/1 44/1/1 43/1/1
f 47/6/1 45/6/1 44/6/1
f 47/1/1 44/1/1 46/1/1
f 48/6/1 45/6/1 47/6/1
f 49/4/1 46/4/1 42/4/1
f 50/6/1 47/6/1 46/6/1
f 50/4/1 46/4/1 49/4/1
f 51/1/1 48/1/1 47/1/1
f 51/6/1 47/6/1 50/6/1
f 52/1/1 48/1/1 51/1/1
f 53/3/1 50/3/1 49/3/1
f 53/1/1 51/1/1 50/1/1
f 54/4/1 52/4/1 51/4/1
f 54/1/1 51/1/1 53/1/1
f 55/4/1 52/4/1 54/4/1
f 56/3/1 53/3/1 49/3/1
f 57/4/1 54/4/1 53/4/1
f 57/3/1 53/3/1 56/3/1
f 58/1/1 55/1/1 54/1/1
f 58/4/1 54/4/1 57/4/1
f 59/1/1 55/1/1 58/1/1
f 60/6/1 57/6/1 56/6/1
f 61/1/1 58/1/1 57/1/1
f 61/6/1 57/6/1 60/6/1
f 62/6/1 59/6/1 58/6/1
f 62/1/1 58/1/1 61/1/1
f 63/3/1 61/3/1 60/3/1
f 63/4/1 62/4/1 61/4/1
f 64/6/1 59/6/1 62/6/1
f 64/4/1 62/4/1 63/4/1
f 65/6/1 59/6/1 64/6/1
f 66/3/1 63/3/1 60/3/1
f 67/3/1 63/3/1 66/3/1
f 70/4/1 69/4/1 68/4/1
f 71/4/1 69/4/1 70/4/1
f 73/4/1 70/4/1 68/4/1
f 74/6/1 71/6/1 70/6/1
f 74/4/1 70/4/1 73/4/1
f 75/1/1 73/1/1 72/1/1
f 76/6/1 74/6/1 73/6/1
f 76/1/1 73/1/1 75/1/1
f 77/6/1 71/6/1 74/6/1
f 77/6/1 74/6/1 76/6/1
f 78/1/2 79/1/2 82/1/2
f 79/6/2 80/6/2 83/6/2
f 82/1/2 79/1/2 83/1/2
f 80/4/2 81/4/2 84/4/2
f 83/6/2 80/6/2 84/6/2
f 84/4/2 81/4/2 85/4/2
f 85/4/2 81/4/2 86/4/2
f 83/6/2 84/6/2 87/6/2
f 87/6/2 84/6/2 88/6/2
f 87/1/2 88/1/2 89/1/2
f 89/1/2 88/1/2 90/1/2
f 89/4/2 90/4/2 93/4/2
f 90/1/2 91/1/2 93/1/2
f 91/6/2 92/6/2 94/6/2
f 93/1/2 91/1/2 94/1/2
f 94/6/2 92/6/2 95/6/2
f 89/4/2 93/4/2 96/4/2
f 93/6/2 94/6/2 97/6/2
f 96/4/2 93/4/2 97/4/2
f 94/1/2 95/1/2 98/1/2
f 97/6/2 94/6/2 98/6/2
f 98/1/2 95/1/2 99/1/2
f 96/3/2 97/3/2 100/3/2
f 97/1/2 98/1/2 100/1/2
f 98/4/2 99/4/2 101/4/2
f 100/1/2 98/1/2 101/1/2
f 101/4/2 99/4/2 102/4/2
f 96/3/2 100/3/2 103/3/2
f 100/4/2 101/4/2 104/4/2
f 103/3/2 100/3/2 104/3/2
f 101/1/2 102/1/2 105/1/2
f 104/4/2 101/4/2 105/4/2
f 105/1/2 102/1/2 106/1/2
f 103/6/2 104/6/2 107/6/2
f 104/1/2 105/1/2 108/1/2
f 107/6/2 104/6/2 108/6/2
f 105/6/2 106/6/2 109/6/2
f 108/1/2 105/1/2 109/1/2
f 107/3/2 108/3/2 110/3/2
f 108/4/2 109/4/2 110/4/2
f 109/6/2 106/6/2 111/6/2
f 110/4/2 109/4/2 111/4/2
f 111/6/2 106/6/2 112/6/2
f 107/3/2 110/3/2 113/3/2
f 113/3/2 110/3/2 114/3/2
f 115/4/2 116/4/2 117/4/2
f 117/4/2 116/4/2 118/4/2
f 115/4/2 117/4/2 120/4/2
f 117/6/2 118/6/2 121/6/2
f 120/4/2 117/4/2 121/4/2
f 119/1/2 120/1/2 122/1/2
f 120/6/2 121/6/2 123/6/2
f 122/1/2 120/1/2 123/1/2
f 121/6/2 118/6/2 124/6/2
f 123/6/2 121/6/2 124/6/2
f 125/4/2 126/4/2 127/4/2
f 127/4/2 126/4/2 128/4/2
f 129/4/2 130/4/2 131/4/2
f 131/4/2 130/4/2 132/4/2
f 133/4/2 134/4/2 135/4/2
f 135/4/2 134/4/2 136/4/2
f 137/2/2 138/2/2 140/2/2
f 138/6/2 139/6/2 141/6/2
f 140/2/2 138/2/2 141/2/2
f 141/6/2 139/6/2 142/6/2
f 143/1/2 144/1/2 146/1/2
f 144/6/2 145/6/2 147/6/2
f 146/1/2 144/1/2 147/1/2
f 147/6/2 145/6/2 148/6/2
f 149/2/2 150/2/2 152/2/2
f 150/6/2 151/6/2 153/6/2
f 152/2/2 150/2/2 153/2/2
f 153/6/2 151/6/2 154/6/2
f 157/1/3 156/1/3 155/1/3
f 158/1/3 156/1/3 157/1/3
f 168/6/3 160/6/3 159/6/3
f 169/1/3 161/1/3 160/1/3
f 169/6/3 160/6/3 168/6/3
f 170/4/3 162/4/3 161/4/3
f 170/1/3 161/1/3 169/1/3
f 171/3/3 163/3/3 162/3/3
f 171/4/3 162/4/3 170/4/3
f 172/6/3 164/6/3 163/6/3
f 172/3/3 163/3/3 171/3/3
f 173/3/3 165/3/3 164/3/3
f 173/6/3 164/6/3 172/6/3
f 174/3/3 165/3/3 173/3/3
f 175/1/3 167/1/3 166/1/3
f 176/1/3 167/1/3 175/1/3
f 179/2/3 178/2/3 177/2/3
f 180/2/3 178/2/3 179/2/3
f 182/1/3 180/1/3 179/1/3
f 182/1/3 181/1/3 180/1/3
f 183/1/3 181/1/3 182/1/3
f 185/2/3 183/2/3 182/2/3
f 185/2/3 184/2/3 183/2/3
f 186/2/3 184/2/3 185/2/3
f 189/1/3 186/1/3 185/1/3
f 190/1/3 186/1/3 189/1/3
f 191/4/3 188/4/3 187/4/3
f 193/2/3 190/2/3 189/2/3
f 194/2/3 190/2/3 193/2/3
f 195/4/3 192/4/3 191/4/3
f 197/1/3 194/1/3 193/1/3
f 198/1/3 194/1/3 197/1/3
f 199/1/3 194/1/3 198/1/3
f 200/4/3 196/4/3 195/4/3
f 200/4/3 191/4/3 187/4/3
f 200/4/3 195/4/3 191/4/3
f 201/4/3 196/4/3 200/4/3
f 202/4/3 196/4/3 201/4/3
f 208/1/3 202/1/3 201/1/3
f 209/4/3 203/4/3 202/4/3
f 209/1/3 202/1/3 208/1/3
f 210/4/3 203/4/3 209/4/3
f 211/1/3 206/1/3 205/1/3
f 211/1/3 205/1/3 204/1/3
f 212/1/3 206/1/3 211/1/3
f 213/4/3 208/4/3 207/4/3
f 213/4/3 209/4/3 208/4/3
f 214/4/3 209/4/3 213/4/3
f 215/2/3 212/2/3 211/2/3
f 216/2/3 212/2/3 215/2/3
f 217/4/3 213/4/3 207/4/3
f 218/4/3 213/4/3 217/4/3
f 219/1/3 216/1/3 215/1/3
f 220/1/3 216/1/3 219/1/3
f 221/4/3 217/4/3 207/4/3
f 222/4/3 217/4/3 221/4/3
f 223/2/3 220/2/3 219/2/3
f 224/2/3 220/2/3 223/2/3
f 225/2/3 220/2/3 224/2/3
f 226/1/3 224/1/3 223/1/3
f 227/1/3 224/1/3 226/1/3
f 228/1/3 224/1/3 227/1/3
f 229/2/3 227/2/3 226/2/3
f 230/2/3 227/2/3 229/2/3
f 231/6/4 232/6/4 233/6/4
f 233/6/4 234/6/4 235/6/4
f 237/4/4 238/4/4 239/4/4
f 239/4/4 240/4/4 241/4/4
f 231/6/4 233/6/4 244/6/4
f 233/6/4 235/6/4 244/6/4
f 235/6/4 236/6/4 244/6/4
f 244/6/4 236/6/4 245/6/4
f 241/4/4 242/4/4 250/4/4
f 239/4/4 241/4/4 250/4/4
f 237/4/4 239/4/4 250/4/4
f 250/4/4 242/4/4 251/4/4
f 243/4/4 244/4/4 254/4/4
f 244/6/4 245/6/4 255/6/4
f 254/4/4 244/4/4 255/4/4
f 245/6/4 246/6/4 255/6/4
f 255/6/4 246/6/4 256/6/4
f 246/1/4 247/1/4 257/1/4
f 256/6/4 246/6/4 257/6/4
f 247/4/4 248/4/4 258/4/4
f 257/1/4 247/1/4 258/1/4
f 248/1/4 249/1/4 259/1/4
f 258/4/4 248/4/4 259/4/4
f 249/6/4 250/6/4 260/6/4
f 259/1/4 249/1/4 260/1/4
f 251/4/4 252/4/4 261/4/4
f 260/6/4 250/6/4 261/6/4
f 250/4/4 251/4/4 261/4/4
f 261/4/4 252/4/4 262/4/4
f 252/6/4 253/6/4 263/6/4
f 262/4/4 252/4/4 263/4/4
f 263/6/4 253/6/4 264/6/4
f 261/4/4 262/4/4 265/4/4
f 265/4/4 262/4/4 266/4/4
f 261/4/4 265/4/4 267/4/4
f 267/4/4 265/4/4 268/4/4
f 261/4/4 267/4/4 269/4/4
f 269/4/4 267/4/4 270/4/4
f 255/6/4 256/6/4 271/6/4
f 271/6/4 256/6/4 272/6/4
f 255/6/4 271/6/4 273/6/4
f 273/6/4 271/6/4 274/6/4
f 255/6/4 273/6/4 275/6/4
f 275/6/4 273/6/4 276/6/4
f 279/1/5 278/1/5 277/1/5
f 280/1/5 278/1/5 279/1/5
f 281/6/5 280/6/5 279/6/5
f 282/6/5 280/6/5 281/6/5
f 283/4/5 282/4/5 281/4/5
f 284/4/5 282/4/5 283/4/5
f 299/2/5 286/2/5 285/2/5
f 300/1/5 287/1/5 286/1/5
f 300/2/5 286/2/5 299/2/5
f 301/2/5 288/2/5 287/2/5
f 301/1/5 287/1/5 300/1/5
f 302/1/5 289/1/5 288/1/5
f 302/2/5 288/2/5 301/2/5
f 303/2/5 290/2/5 289/2/5
f 303/1/5 289/1/5 302/1/5
f 304/1/5 291/1/5 290/1/5
f 304/2/5 290/2/5 303/2/5
f 305/1/5 291/1/5 304/1/5
f 306/1/5 293/1/5 292/1/5
f 307/2/5 294/2/5 293/2/5
f 307/1/5 293/1/5 306/1/5
f 308/1/5 295/1/5 294/1/5
f 308/2/5 294/2/5 307/2/5
f 309/2/5 296/2/5 295/2/5
f 309/1/5 295/1/5 308/1/5
f 310/1/5 297/1/5 296/1/5
f 310/2/5 296/2/5 309/2/5
f 311/2/5 298/2/5 297/2/5
f 311/1/5 297/1/5 310/1/5
f 312/2/5 298/2/5 311/2/5
f 313/6/5 300/6/5 299/6/5
f 313/6/5 301/6/5 300/6/5
f 313/6/5 302/6/5 301/6/5
f 313/6/5 303/6/5 302/6/5
f 313/6/5 304/6/5 303/6/5
f 313/6/5 305/6/5 304/6/5
f 314/6/5 305/6/5 313/6/5
f 315/6/5 310/6/5 309/6/5
f 315/6/5 312/6/5 311/6/5
f 315/6/5 311/6/5 310/6/5
f 315/6/5 307/6/5 306/6/5
f 315/6/5 309/6/5 308/6/5
f 315/6/5 308/6/5 307/6/5
f 316/6/5 312/6/5 315/6/5
f 321/4/5 318/4/5 317/4/5
f 322/4/5 320/4/5 319/4/5
f 323/4/5 321/4/5 317/4/5
f 324/4/5 321/4/5 323/4/5
f 325/4/5 320/4/5 322/4/5
f 326/4/5 320/4/5 325/4/5
f 329/1/5 328/1/5 327/1/5
f 330/1/5 328/1/5 329/1/5
f 331/1/6 332/1/6 333/1/6
f 333/1/6 332/1/6 334/1/6
f 335/2/6 336/2/6 339/2/6
f 339/2/6 336/2/6 340/2/6
f 337/2/6 338/2/6 341/2/6
f 341/2/6 338/2/6 342/2/6
f 339/6/6 340/6/6 343/6/6
f 343/6/6 340/6/6 344/6/6
f 341/6/6 342/6/6 345/6/6
f 345/6/6 342/6/6 346/6/6
f 347/1/6 348/1/6 351/1/6
f 351/1/6 348/1/6 352/1/6
f 349/1/6 350/1/6 353/1/6
f 353/1/6 350/1/6 354/1/6
f 351/6/6 352/6/6 355/6/6
f 355/6/6 352/6/6 356/6/6
f 353/6/6 354/6/6 357/6/6
f 357/6/6 354/6/6 358/6/6
f 359/2/6 360/2/6 369/2/6
f 360/1/6 361/1/6 370/1/6
f 369/2/6 360/2/6 370/2/6
f 361/2/6 362/2/6 371/2/6
f 370/1/6 361/1/6 371/1/6
f 362/1/6 363/1/6 372/1/6
f 371/2/6 362/2/6 372/2/6
f 372/1/6 363/1/6 373/1/6
f 364/1/6 365/1/6 374/1/6
f 365/2/6 366/2/6 375/2/6
f 374/1/6 365/1/6 375/1/6
f 366/1/6 367/1/6 376/1/6
f 375/2/6 366/2/6 376/2/6
f 367/2/6 368/2/6 377/2/6
f 376/1/6 367/1/6 377/1/6
f 377/2/6 368/2/6 378/2/6
f 369/6/6 370/6/6 379/6/6
f 370/6/6 371/6/6 379/6/6
f 372/6/6 373/6/6 379/6/6
f 371/6/6 372/6/6 379/6/6
f 379/6/6 373/6/6 380/6/6
f 375/6/6 376/6/6 381/6/6
f 377/6/6 378/6/6 381/6/6
f 376/6/6 377/6/6 381/6/6
f 374/6/6 375/6/6 381/6/6
f 381/6/6 378/6/6 382/6/6
f 383/3/6 384/3/6 387/3/6
f 387/3/6 384/3/6 388/3/6
f 385/4/6 386/4/6 391/4/6
f 391/4/6 386/4/6 392/4/6
f 389/4/6 390/4/6 393/4/6
f 393/4/6 390/4/6 394/4/6
f 395/4/6 396/4/6 399/4/6
f 399/4/6 396/4/6 400/4/6
f 397/4/6 398/4/6 401/4/6
f 401/4/6 398/4/6 402/4/6
f 403/4/6 404/4/6 407/4/6
f 407/4/6 404/4/6 408/4/6
f 405/4/6 406/4/6 409/4/6
f 409/4/6 406/4/6 410/4/6
f 411/1/6 412/1/6 413/1/6
f 413/1/6 412/1/6 414/1/6
f 413/6/6 414/6/6 415/6/6
f 415/6/6 414/6/6 416/6/6
